<?xml version="1.0" encoding="utf-8"?>
<!-- Generator: Adobe Illustrator 22.0.1, SVG Export Plug-In . SVG Version: 6.00 Build 0)  -->
<svg version="1.1" id="Layer_1" xmlns="http://www.w3.org/2000/svg" xmlns:xlink="http://www.w3.org/1999/xlink" x="0px" y="0px"
	 viewBox="0 0 660 324" style="enable-background:new 0 0 660 324;" xml:space="preserve">
<g>
	<path d="M186,168h-48c-6.6,0-12,5.4-12,12v48c0,6.6,5.4,12,12,12h48c6.6,0,12-5.4,12-12v-48C198,173.4,192.6,168,186,168z
		 M150.8,202l-5.8-10.2l-3.1,3.9v6.3H138v-21.6h3.8v9.8h0.1l7.7-9.8h4.3l-6.6,8.4L155,202H150.8z"/>
	<path d="M156,144V96c0-6.6-5.4-12-12-12H96c-6.6,0-12,5.4-12,12v48c0,6.6,5.4,12,12,12h48C150.6,156,156,150.6,156,144z M108.8,118
		H96V96.4h3.8v18.4h9V118z"/>
	<path d="M270,168h-48c-6.6,0-12,5.4-12,12v48c0,6.6,5.4,12,12,12h48c6.6,0,12-5.4,12-12v-48C282,173.4,276.6,168,270,168z
		 M234.8,202l-5.8-10.2l-3.1,3.9v6.3H222v-21.6h3.8v9.8h0.1l7.7-9.8h4.3l-6.6,8.4L239,202H234.8z"/>
</g>
<g>
	<path d="M336,180.4h3.8v18.4h9v3.2H336V180.4z"/>
	<path d="M352.1,187.5c1.8-1.1,4-2.1,6.4-2.1c2.2,0,3.8,1.1,4.6,2.9c1.3-1.8,3-2.9,5-2.9c4.1,0,6.3,3.2,6.3,7.8
		c0,0.7-0.1,1.4-0.2,1.8h-9.9c0.3,2.8,2.1,4.4,4.5,4.4c1.4,0,2.5-0.5,3.7-1.3l1.4,2.5c-1.6,1-3.5,1.8-5.5,1.8
		c-2.5,0-4.4-1.2-5.6-2.8c-2.2,1.9-4.3,2.8-6.4,2.8c-2.8,0-4.8-1.9-4.8-4.8c0-3.5,2.9-5.3,9.4-6c-0.1-1.7-0.7-3.2-2.9-3.2
		c-1.6,0-3.1,0.7-4.5,1.6L352.1,187.5z M357.5,199.4c1.3,0,2.8-0.7,4-1.9c-0.3-0.8-0.5-1.8-0.5-2.7l-0.1-0.8
		c-4.1,0.6-5.7,1.7-5.7,3.3C355.1,198.8,356.1,199.4,357.5,199.4z M371.1,192.5c0-2.6-1.1-4.2-3.2-4.2c-1.8,0-3.3,1.5-3.6,4.2H371.1
		z"/>
	<path d="M378,185.8h3.1l0.3,2.9h0.1c1.2-2.1,2.9-3.3,4.6-3.3c0.8,0,1.4,0.1,1.8,0.3l-0.7,3.3c-0.6-0.2-1-0.3-1.7-0.3
		c-1.3,0-2.8,0.9-3.8,3.3v9.9H378V185.8z"/>
	<path d="M397.4,180.4h3.8v9.8h0.1l7.7-9.8h4.3l-6.6,8.4l7.8,13.2h-4.2l-5.8-10.2l-3.1,3.9v6.3h-3.8V180.4z"/>
	<path d="M417,180.8c0-1.3,1-2.2,2.3-2.2c1.4,0,2.3,0.9,2.3,2.2c0,1.3-1,2.1-2.3,2.1C418,183,417,182.1,417,180.8z M417.5,185.8h3.8
		V202h-3.8V185.8z"/>
	<path d="M431.9,185.4c1.8,0,3,0.7,4.3,1.8l-0.1-2.6v-5.9h3.8V202h-3.1l-0.3-1.7h-0.1c-1.2,1.2-2.8,2.1-4.6,2.1
		c-4.1,0-6.7-3.1-6.7-8.5C425,188.6,428.4,185.4,431.9,185.4z M432.6,199.3c1.3,0,2.3-0.6,3.4-1.8v-7.6c-1.1-1-2.2-1.4-3.3-1.4
		c-2.1,0-3.8,1.9-3.8,5.3C429,197.4,430.3,199.3,432.6,199.3z"/>
	<path d="M444.8,197.7c1.5,1.1,2.8,1.8,4.5,1.8c1.8,0,2.6-0.8,2.6-1.9c0-1.4-1.7-1.9-3.5-2.6c-2.1-0.8-4.6-2-4.6-4.7
		c0-2.8,2.3-4.9,5.9-4.9c2.2,0,4.1,0.9,5.4,1.9l-1.7,2.3c-1.1-0.8-2.3-1.4-3.6-1.4c-1.6,0-2.4,0.8-2.4,1.8c0,1.3,1.6,1.8,3.4,2.4
		c2.2,0.8,4.7,1.9,4.7,4.9c0,2.8-2.2,5-6.3,5c-2.2,0-4.6-1-6.1-2.2L444.8,197.7z"/>
	<path d="M467.7,191.6c0-1.7-0.8-3.2-2.9-3.2c-1.6,0-3.1,0.7-4.6,1.6l-1.4-2.5c1.8-1.1,4.1-2.1,6.6-2.1c4.1,0,6,2.5,6,7v9.6h-3.1
		l-0.3-1.8H468c-1.5,1.2-3.1,2.2-5,2.2c-2.8,0-4.8-1.9-4.8-4.8C458.2,194.2,461.1,192.4,467.7,191.6z M464.2,199.4
		c1.3,0,2.3-0.7,3.5-1.8V194c-4.4,0.6-5.8,1.7-5.8,3.3C461.9,198.8,462.8,199.4,464.2,199.4z"/>
	<path d="M483.2,180.4h3.8v9.8h0.1l7.7-9.8h4.3l-6.6,8.4l7.8,13.2H496l-5.8-10.2l-3.1,3.9v6.3h-3.8V180.4z"/>
	<path d="M509.1,185.4c4.1,0,7.7,3.1,7.7,8.5c0,5.4-3.7,8.5-7.7,8.5c-4,0-7.7-3.1-7.7-8.5C501.4,188.5,505.1,185.4,509.1,185.4z
		 M509.1,199.3c2.4,0,3.8-2.1,3.8-5.4c0-3.3-1.5-5.4-3.8-5.4c-2.4,0-3.8,2.1-3.8,5.4C505.3,197.1,506.7,199.3,509.1,199.3z"/>
	<path d="M526.5,185.4c1.8,0,3,0.7,4.3,1.8l-0.1-2.6v-5.9h3.8V202h-3.1l-0.3-1.7h-0.1c-1.2,1.2-2.8,2.1-4.6,2.1
		c-4.1,0-6.7-3.1-6.7-8.5C519.6,188.6,522.9,185.4,526.5,185.4z M527.2,199.3c1.3,0,2.3-0.6,3.4-1.8v-7.6c-1.1-1-2.2-1.4-3.3-1.4
		c-2.1,0-3.8,1.9-3.8,5.3C523.5,197.4,524.9,199.3,527.2,199.3z"/>
	<path d="M538.8,180.8c0-1.3,1-2.2,2.3-2.2c1.4,0,2.3,0.9,2.3,2.2c0,1.3-1,2.1-2.3,2.1C539.8,183,538.8,182.1,538.8,180.8z
		 M539.2,185.8h3.8V202h-3.8V185.8z"/>
	<path d="M547.7,185.8h3.1l0.3,2.2h0.1c1.5-1.4,3.1-2.6,5.3-2.6c3.5,0,5,2.3,5,6.4V202h-3.8v-9.7c0-2.7-0.8-3.7-2.5-3.7
		c-1.4,0-2.3,0.7-3.7,2V202h-3.8V185.8z"/>
	<path d="M567,201.5v-0.1c-0.8-0.5-1.5-1.4-1.5-2.7c0-1.3,0.9-2.3,1.8-3v-0.1c-1.1-0.8-2.1-2.4-2.1-4.3c0-3.7,3-5.8,6.4-5.8
		c0.9,0,1.7,0.2,2.4,0.4h5.8v2.8h-3c0.5,0.6,0.9,1.6,0.9,2.7c0,3.6-2.7,5.5-6.1,5.5c-0.7,0-1.5-0.1-2.2-0.4
		c-0.5,0.4-0.8,0.8-0.8,1.6c0,0.9,0.7,1.5,2.6,1.5h2.9c3.9,0,5.9,1.2,5.9,4c0,3.2-3.4,5.7-8.6,5.7c-3.9,0-6.7-1.4-6.7-4.2
		C564.7,203.6,565.5,202.4,567,201.5z M572,206.7c2.6,0,4.4-1.2,4.4-2.6c0-1.3-1-1.6-2.9-1.6h-2.2c-0.9,0-1.6-0.1-2.2-0.2
		c-0.9,0.7-1.3,1.4-1.3,2.1C567.9,205.8,569.4,206.7,572,206.7z M574.4,191.2c0-2-1.2-3.2-2.8-3.2c-1.6,0-2.8,1.2-2.8,3.2
		c0,2.1,1.3,3.3,2.8,3.3C573.2,194.5,574.4,193.3,574.4,191.2z"/>
</g>
<g>
	<path d="M336.1,214.5h2.7v15.9h0.1l6.8-8.4h3l-5.4,6.4l6.1,9.6h-3l-4.7-7.7l-3,3.5v4.2h-2.7V214.5z"/>
	<path d="M352.2,216.9c0-1.1,0.8-1.7,1.9-1.7c1.1,0,1.9,0.7,1.9,1.7c0,1-0.8,1.7-1.9,1.7C353.1,218.7,352.2,217.9,352.2,216.9z
		 M352.7,222h2.7v16h-2.7V222z"/>
	<path d="M366.7,221.6c1.8,0,3.1,0.7,4.5,1.8l-0.1-2.7v-6.2h2.7V238h-2.2l-0.2-1.9h-0.1c-1.3,1.2-3,2.3-4.9,2.3c-4,0-6.6-3-6.6-8.4
		C359.7,224.8,363,221.6,366.7,221.6z M366.9,236.1c1.5,0,2.8-0.7,4.1-2.2v-8.4c-1.4-1.2-2.6-1.7-3.9-1.7c-2.6,0-4.6,2.5-4.6,6.1
		C362.5,233.8,364.1,236.1,366.9,236.1z"/>
	<path d="M378.6,234.4c1.4,1.1,2.8,1.9,4.7,1.9c2.1,0,3.2-1.1,3.2-2.5c0-1.7-1.9-2.4-3.7-3c-2.3-0.8-4.8-1.9-4.8-4.6
		c0-2.6,2-4.6,5.5-4.6c2,0,3.8,0.8,5,1.8l-1.3,1.7c-1.1-0.8-2.2-1.4-3.7-1.4c-2,0-2.9,1.1-2.9,2.3c0,1.5,1.8,2.1,3.6,2.8
		c2.3,0.9,4.9,1.8,4.9,4.9c0,2.6-2.1,4.8-5.9,4.8c-2.3,0-4.5-1-6-2.2L378.6,234.4z"/>
	<path d="M402,227.8c0-2-0.7-4-3.3-4c-1.9,0-3.5,0.9-4.8,1.7l-1.1-1.9c1.5-1,3.7-2.1,6.3-2.1c3.9,0,5.6,2.6,5.6,6.6v9.8h-2.2
		l-0.2-1.9h-0.1c-1.6,1.3-3.3,2.3-5.3,2.3c-2.7,0-4.7-1.7-4.7-4.6C392.1,230.3,395.1,228.6,402,227.8z M397.6,236.2
		c1.6,0,2.8-0.8,4.4-2.1v-4.5c-5.4,0.7-7.2,2-7.2,4C394.8,235.5,396,236.2,397.6,236.2z"/>
	<path d="M409.6,214.5h2.7v15.9h0.1l6.8-8.4h3l-5.4,6.4l6.1,9.6h-3l-4.7-7.7l-3,3.5v4.2h-2.7V214.5z"/>
	<path d="M432.1,221.6c3.9,0,7.4,3.1,7.4,8.4c0,5.3-3.5,8.4-7.4,8.4c-3.9,0-7.4-3.1-7.4-8.4C424.6,224.6,428.1,221.6,432.1,221.6z
		 M432.1,236.2c2.8,0,4.6-2.5,4.6-6.1c0-3.7-1.8-6.2-4.6-6.2c-2.7,0-4.6,2.5-4.6,6.2C427.5,233.7,429.3,236.2,432.1,236.2z"/>
	<path d="M449.5,221.6c1.8,0,3.1,0.7,4.5,1.8l-0.1-2.7v-6.2h2.7V238h-2.2l-0.2-1.9h-0.1c-1.3,1.2-3,2.3-4.9,2.3c-4,0-6.6-3-6.6-8.4
		C442.6,224.8,445.9,221.6,449.5,221.6z M449.8,236.1c1.5,0,2.8-0.7,4.1-2.2v-8.4c-1.4-1.2-2.6-1.7-3.9-1.7c-2.6,0-4.6,2.5-4.6,6.1
		C445.4,233.8,447,236.1,449.8,236.1z"/>
	<path d="M467.8,221.6c4.1,0,6.4,2.9,6.4,7.5c0,0.6,0,1.1-0.1,1.5h-10.8c0.2,3.5,2.3,5.6,5.3,5.6c1.5,0,2.8-0.5,4-1.3l1,1.8
		c-1.4,0.9-3.1,1.7-5.3,1.7c-4.3,0-7.7-3.1-7.7-8.4C460.6,224.8,464.2,221.6,467.8,221.6z M471.9,228.8c0-3.3-1.5-5.1-4-5.1
		c-2.2,0-4.3,1.8-4.6,5.1H471.9z"/>
	<path d="M478.2,222h2.2l0.2,2.9h0.1c1.1-2,2.7-3.3,4.6-3.3c0.7,0,1.2,0.1,1.7,0.3l-0.5,2.4c-0.5-0.2-0.9-0.3-1.6-0.3
		c-1.4,0-3,1-4.1,3.7V238h-2.7V222z"/>
	<path d="M489.2,234.2c1.1,0,1.9,0.9,1.9,2.1c0,1.2-0.9,2-1.9,2c-1.1,0-2-0.9-2-2C487.2,235.1,488.1,234.2,489.2,234.2z"/>
	<path d="M496,222h2.2l0.2,2.3h0.1c1.5-1.5,3.2-2.7,5.4-2.7c3.4,0,4.9,2.2,4.9,6.3V238h-2.7v-9.8c0-3-0.9-4.3-3-4.3
		c-1.7,0-2.8,0.9-4.4,2.5V238H496V222z"/>
	<path d="M520.1,221.6c3.9,0,7.4,3.1,7.4,8.4c0,5.3-3.5,8.4-7.4,8.4c-3.9,0-7.4-3.1-7.4-8.4C512.7,224.6,516.2,221.6,520.1,221.6z
		 M520.1,236.2c2.8,0,4.6-2.5,4.6-6.1c0-3.7-1.8-6.2-4.6-6.2c-2.7,0-4.6,2.5-4.6,6.2C515.5,233.7,517.3,236.2,520.1,236.2z"/>
</g>
</svg>
