<?xml version="1.0" encoding="UTF-8" standalone="no"?>
<svg
   xmlns:dc="http://purl.org/dc/elements/1.1/"
   xmlns:cc="http://creativecommons.org/ns#"
   xmlns:rdf="http://www.w3.org/1999/02/22-rdf-syntax-ns#"
   xmlns:svg="http://www.w3.org/2000/svg"
   xmlns="http://www.w3.org/2000/svg"
   viewBox="0 0 714.14667 109.37333"
   height="109.37333"
   width="714.14667"
   xml:space="preserve"
   id="svg2"
   version="1.1"><metadata
     id="metadata8"><rdf:RDF><cc:Work
         rdf:about=""><dc:format>image/svg+xml</dc:format><dc:type
           rdf:resource="http://purl.org/dc/dcmitype/StillImage" /></cc:Work></rdf:RDF></metadata><defs
     id="defs6" /><g
     transform="matrix(1.3333333,0,0,-1.3333333,0,109.37333)"
     id="g10"><g
       transform="scale(0.1)"
       id="g12"><path
         id="path14"
         style="fill:#040606;fill-opacity:1;fill-rule:nonzero;stroke:none"
         d="M 5085.31,460.039 V 348.367 h 78.45 V 237.57 c 0.26,-9.902 -0.27,-20.578 -1.99,-29.125 -3.08,-20.664 -22.75,-55.847 -78.44,-55.847 -55.37,0 -74.64,35.183 -78.02,55.847 -1.39,8.547 -1.98,19.223 -1.98,29.125 v 349.953 c 0,12.383 0.83,25.922 3.44,36.188 3.81,18.648 20.35,55.426 76.15,55.426 58.56,0 73.19,-38.782 76.53,-55.426 2.22,-11.035 2.32,-29.551 2.32,-29.551 v -42.476 h 192.85 v 25.101 c 0,0 0.88,26.219 -1.46,50.688 -14.51,143.632 -132.83,189.07 -268.56,189.07 -135.93,0 -251.89,-45.848 -268.78,-189.07 -1.53,-13.102 -3.85,-36.66 -3.85,-50.688 v -321.91 c 0,-14.016 0.45,-24.875 3.03,-50.512 12.61,-139.6677 133.67,-189.1755 269.08,-189.1755 136.25,0 256.46,49.5078 269.25,189.1755 2.29,25.637 2.5,36.496 2.82,50.512 V 460.039 Z M 3755.66,795.961 H 3561.99 V 229.484 c 0.31,-9.855 0,-20.937 -1.7,-29.074 -4.04,-19.012 -20.14,-55.613 -73.58,-55.613 -52.73,0 -69.27,36.601 -73,55.613 -1.96,8.137 -2.21,19.219 -1.96,29.074 V 795.961 H 3218.16 V 247.07 c -0.24,-14.14 0.88,-43.039 1.7,-50.613 13.36,-143.0507 126.09,-189.45309 266.85,-189.45309 141.04,0 253.68,46.40239 267.29,189.45309 1.07,7.574 2.48,36.473 1.66,50.613 z m -1779.33,0 -96.61,-598.559 -96.54,598.559 H 1470.79 L 1454.23,30.2539 h 191.39 l 5.15,708.8201 131.68,-708.8201 h 194.19 l 131.76,708.8201 5.2,-708.8201 h 191.89 l -17.14,765.7071 z m -1156.58,0 L 677.914,30.2539 H 884.746 L 991.637,739.074 1095.95,30.2539 h 205.42 L 1160.13,795.961 Z M 4432.42,179.465 4252.1,795.961 H 3967.96 V 38.2344 h 187.97 L 4145.01,674.438 4338.69,38.2344 h 272.5 V 795.961 H 4422.01 Z M 2693.75,596.676 c -3.42,15.133 -2.43,31.179 -0.67,39.59 5.47,24.519 21.93,51.25 69.42,51.25 44.17,0 70.13,-27.578 70.13,-68.946 0,-13.976 0,-46.828 0,-46.828 h 188.79 v 53.356 c 0,165 -147.93,190.91 -255.02,190.91 -134.87,0 -245.03,-44.453 -265.14,-168.606 -5.32,-33.773 -6.65,-63.765 1.81,-102.031 32.8,-154.785 302.28,-199.695 341.4,-297.59 6.89,-18.523 4.92,-42.183 1.4,-56.121 -5.86,-25.461 -23,-51.074 -73.8,-51.074 -47.64,0 -76.31,27.383 -76.31,68.684 l -0.08,73.472 h -203.19 v -58.433 c 0,-169.2387 132.56,-220.31681 275.36,-220.31681 136.73,0 249.72,46.72261 267.85,173.41781 8.61,65.453 2.11,108.078 -1.35,124.145 -31.66,158.754 -318.87,206.504 -340.6,295.121 z m -2490.242,1.875 c -3.707,15.433 -2.84,31.719 -0.758,40.226 5.211,24.383 21.789,51.586 70.055,51.586 44.808,0 71.164,-27.82 71.164,-69.523 0,-14.141 0,-47.395 0,-47.395 h 190.992 v 53.782 c 0,166.578 -150.16,193.117 -258.438,193.117 C 140.512,820.344 29.375,775.211 9.04688,650.176 3.49219,615.852 2.53906,585.641 10.5859,546.965 43.7461,390.402 315.863,345.129 355.453,246.094 c 7.43,-18.426 5.172,-42.063 1.488,-56.543 -6.277,-25.742 -23.535,-51.738 -74.75,-51.738 -47.851,0 -76.464,27.871 -76.464,69.738 l -0.266,73.679 H 0 V 222.656 C 0,51.4766 134.457,0 278.344,0 c 138.355,0 251.949,47.1406 270.488,175.281 9.231,66.067 2.313,109.055 -0.805,125.344 C 515.703,461.332 225.32,508.93 203.508,598.551" /></g></g></svg>