<?xml version="1.0" standalone="no"?>
<!DOCTYPE svg PUBLIC "-//W3C//DTD SVG 20010904//EN"
 "http://www.w3.org/TR/2001/REC-SVG-20010904/DTD/svg10.dtd">
<svg version="1.0" xmlns="http://www.w3.org/2000/svg"
 width="1051.000000pt" height="300.000000pt" viewBox="0 0 1051.000000 300.000000"
 preserveAspectRatio="xMidYMid meet">
<metadata>
Created by potrace 1.15, written by Peter Selinger 2001-2017
</metadata>
<g transform="translate(0.000000,300.000000) scale(0.100000,-0.100000)"
fill="#000000" stroke="none">
<path d="M964 2479 c-446 -93 -755 -557 -705 -1057 44 -456 360 -809 770 -862
301 -39 600 106 782 378 46 69 50 81 46 117 -4 26 -15 48 -32 62 -51 44 -94
25 -151 -65 -83 -129 -225 -237 -374 -283 -59 -18 -98 -23 -180 -23 -174 0
-306 55 -441 182 -141 132 -223 300 -245 500 l-7 62 751 0 751 0 28 24 c26 23
28 29 26 93 -2 96 -46 260 -99 372 -127 270 -341 447 -606 502 -115 23 -197
23 -314 -2z m354 -205 c213 -71 397 -274 457 -505 8 -31 15 -64 15 -73 0 -15
-62 -16 -675 -16 l-675 0 6 28 c57 261 223 465 452 558 126 51 284 54 420 8z"/>
<path d="M2905 2480 c-276 -62 -480 -255 -576 -545 -23 -70 -23 -72 -26 -696
-4 -618 -4 -626 17 -651 11 -15 33 -29 49 -33 38 -8 89 18 101 51 6 15 10 256
10 592 0 628 2 648 64 778 38 81 139 194 216 244 110 70 261 101 392 80 91
-15 215 -73 284 -134 68 -60 138 -165 172 -256 l27 -75 5 -610 c6 -672 3 -644
68 -666 45 -15 86 3 107 47 14 31 16 96 13 627 -4 575 -4 594 -26 672 -12 44
-38 112 -56 152 -152 319 -508 499 -841 423z"/>
<path d="M4840 2481 c-298 -64 -542 -286 -659 -602 -29 -76 -52 -182 -42 -192
4 -4 45 -7 91 -5 l83 3 19 68 c60 221 204 401 393 492 113 55 188 69 313 62
138 -7 234 -45 361 -141 113 -85 229 -267 267 -418 l16 -68 89 0 c104 0 101
-5 68 117 -97 357 -356 615 -684 683 -118 24 -202 24 -315 1z"/>
<path d="M6780 2479 c-215 -47 -409 -196 -509 -389 -50 -98 -80 -186 -91 -274
-5 -39 -10 -322 -10 -629 0 -610 -1 -602 58 -626 37 -15 74 -6 104 26 l23 25
5 616 5 617 26 66 c39 101 76 158 150 231 153 152 371 203 574 136 205 -68
364 -262 395 -484 6 -45 10 -299 10 -629 l0 -554 24 -28 c34 -40 98 -39 132 1
l25 28 -3 622 c-4 613 -4 622 -26 696 -87 285 -310 494 -587 551 -112 23 -196
23 -305 -2z"/>
<path d="M8058 2484 c-15 -8 -32 -23 -38 -34 -7 -12 -10 -326 -10 -927 0 -995
-4 -937 59 -963 23 -9 38 -9 66 0 69 23 65 -29 65 964 0 673 -3 902 -12 921
-13 28 -55 55 -85 55 -10 -1 -30 -7 -45 -16z"/>
<path d="M9342 2484 c-386 -65 -677 -324 -789 -704 -25 -86 -28 -109 -28 -250
0 -130 4 -168 23 -240 51 -187 129 -320 266 -455 336 -330 850 -375 1252 -108
91 60 109 119 55 174 -42 42 -79 39 -160 -15 -92 -61 -136 -82 -238 -112 -74
-23 -107 -27 -213 -27 -236 -1 -405 68 -571 233 -83 84 -101 108 -147 200 -60
123 -82 218 -82 352 0 431 354 778 794 778 178 0 338 -54 485 -164 48 -36 94
-35 132 3 29 29 37 68 23 106 -9 22 -115 96 -199 137 -190 95 -398 126 -603
92z"/>
<path d="M4136 1362 c-3 -5 3 -44 14 -88 111 -458 510 -763 935 -714 118 14
193 37 295 92 150 80 272 200 360 354 46 81 107 246 117 320 l6 44 -91 0 -90
0 -17 -70 c-50 -204 -201 -398 -380 -488 -85 -43 -157 -62 -255 -69 -314 -20
-605 211 -698 554 l-19 68 -86 3 c-47 1 -88 -1 -91 -6z"/>
</g>
</svg>
